<?xml version="1.0" standalone="no"?>
<svg xmlns="http://www.w3.org/2000/svg" xmlns:xlink="http://www.w3.org/1999/xlink" width="765pt" height="766pt" viewBox="0.00 0.00 765.00 766.00">
<g id="graph0" class="graph" transform="translate(4,762) scale(1)" data-name="">
<polygon fill="white" stroke="none" points="-4,4 -4,-762 761,-762 761,4 -4,4" style=""/>
<g id="clust1" class="cluster" data-name="cluster0">

<polygon fill="rgb(255,255,255)" stroke="rgb(232,246,252)" points="8,-8 8,-750 749,-750 749,-8 8,-8" style=""/>
</g>
<g id="clust2" class="cluster" data-name="cluster1">

<polygon fill="rgb(255,255,255)" stroke="rgb(232,246,252)" points="78,-18 78,-740 739,-740 739,-18 78,-18" style=""/>
</g>
<g id="clust3" class="cluster" data-name="cluster4">

<polygon fill="rgb(255,255,255)" stroke="rgb(253,245,239)" stroke-width="2" points="241,-28 241,-730 671,-730 671,-28 241,-28" style=""/>
</g>
<g id="clust4" class="cluster" data-name="cluster13">

<polygon fill="white" stroke="#1cade4" points="251,-38 251,-300 603,-300 603,-38 251,-38" style=""/>
</g>
<g id="clust5" class="cluster" data-name="cluster14">

<polygon fill="white" stroke="#1cade4" points="392,-123.5 392,-286.5 513,-286.5 513,-123.5 392,-123.5" style=""/>
</g>
<g id="clust6" class="cluster" data-name="cluster17">

<polygon fill="white" stroke="#1cade4" points="261,-48 261,-286.5 382,-286.5 382,-48 261,-48" style=""/>
</g>
<!-- 2 -->
<g id="node1" class="node" pointer-events="visible" data-name="2">

<polygon fill="rgb(246,249,254)" stroke="none" points="191,-678.5 191,-705.5 231,-705.5 231,-678.5 191,-678.5" style=""/>
<text text-anchor="start" x="197.85" y="-689.1" font-family="monospace" font-weight="bold" font-size="11.00" style="">Input</text>
<polygon fill="none" stroke="rgb(255,255,255)" points="191,-678.5 191,-705.5 231,-705.5 231,-678.5 191,-678.5" style=""/>
</g>
<!-- 3 -->
<g id="node2" class="node" pointer-events="visible" data-name="3">

<polygon fill="rgb(246,249,254)" stroke="none" points="681,-588.5 681,-642.5 729,-642.5 729,-588.5 681,-588.5" style=""/>
<polygon fill="rgb(255,255,255)" stroke="none" points="687,-618.5 687,-636.5 723,-636.5 723,-618.5 687,-618.5" style=""/>
<polygon fill="none" stroke="rgb(232,246,252)" points="687,-618.5 687,-636.5 723,-636.5 723,-618.5 687,-618.5" style=""/>
<text text-anchor="start" x="702.5" y="-624.5" font-family="monospace" font-size="10.00" style="">0</text>
<text text-anchor="start" x="687.88" y="-599.6" font-family="monospace" font-weight="bold" font-size="11.00" style="">Output</text>
<polygon fill="none" stroke="rgb(255,255,255)" points="681,-588.5 681,-642.5 729,-642.5 729,-588.5 681,-588.5" style=""/>
</g>
<!-- 5 -->
<g id="node3" class="node" pointer-events="visible" data-name="5">

<polygon fill="rgb(246,249,254)" stroke="none" points="621,-678.5 621,-705.5 661,-705.5 661,-678.5 621,-678.5" style=""/>
<text text-anchor="start" x="627.85" y="-689.1" font-family="monospace" font-weight="bold" font-size="11.00" style="">Input</text>
<polygon fill="none" stroke="rgb(255,255,255)" points="621,-678.5 621,-705.5 661,-705.5 661,-678.5 621,-678.5" style=""/>
</g>
<!-- 6 -->
<g id="node4" class="node" pointer-events="visible" data-name="6">

<polygon fill="rgb(246,249,254)" stroke="none" points="613,-133.5 613,-187.5 661,-187.5 661,-133.5 613,-133.5" style=""/>
<polygon fill="rgb(255,255,255)" stroke="none" points="619,-163.5 619,-181.5 655,-181.5 655,-163.5 619,-163.5" style=""/>
<polygon fill="none" stroke="rgb(232,246,252)" points="619,-163.5 619,-181.5 655,-181.5 655,-163.5 619,-163.5" style=""/>
<text text-anchor="start" x="634.5" y="-169.5" font-family="monospace" font-size="10.00" style="">0</text>
<text text-anchor="start" x="619.88" y="-144.6" font-family="monospace" font-weight="bold" font-size="11.00" style="">Output</text>
<polygon fill="none" stroke="rgb(255,255,255)" points="613,-133.5 613,-187.5 661,-187.5 661,-133.5 613,-133.5" style=""/>
</g>
<!-- 7 -->
<g id="node5" class="node" pointer-events="visible" data-name="7">

<polygon fill="rgb(246,249,254)" stroke="none" points="449,-588.5 449,-642.5 495,-642.5 495,-588.5 449,-588.5" style=""/>
<text text-anchor="start" x="455.5" y="-626.6" font-family="monospace" font-weight="bold" font-size="11.00" style="">QAlloc</text>
<polygon fill="rgb(255,255,255)" stroke="none" points="455,-594.5 455,-612.5 489,-612.5 489,-594.5 455,-594.5" style=""/>
<polygon fill="none" stroke="rgb(232,246,252)" points="455,-594.5 455,-612.5 489,-612.5 489,-594.5 455,-594.5" style=""/>
<text text-anchor="start" x="469.5" y="-600.5" font-family="monospace" font-size="10.00" style="">0</text>
<polygon fill="none" stroke="rgb(255,255,255)" points="449,-588.5 449,-642.5 495,-642.5 495,-588.5 449,-588.5" style=""/>
</g>
<!-- 10 -->
<g id="node8" class="node" pointer-events="visible" data-name="10">

<polygon fill="rgb(246,249,254)" stroke="none" points="490.5,-486 490.5,-567 527.5,-567 527.5,-486 490.5,-486" style=""/>
<polygon fill="rgb(255,255,255)" stroke="none" points="497,-542.5 497,-560.5 508,-560.5 508,-542.5 497,-542.5" style=""/>
<polygon fill="none" stroke="rgb(232,246,252)" points="497,-542.5 497,-560.5 508,-560.5 508,-542.5 497,-542.5" style=""/>
<text text-anchor="start" x="500" y="-548.5" font-family="monospace" font-size="10.00" style="">0</text>
<polygon fill="rgb(255,255,255)" stroke="none" points="511,-542.5 511,-560.5 522,-560.5 522,-542.5 511,-542.5" style=""/>
<polygon fill="none" stroke="rgb(232,246,252)" points="511,-542.5 511,-560.5 522,-560.5 522,-542.5 511,-542.5" style=""/>
<text text-anchor="start" x="514" y="-548.5" font-family="monospace" font-size="10.00" style="">1</text>
<text text-anchor="start" x="501.56" y="-523.6" font-family="monospace" font-weight="bold" font-size="11.00" style="">CX</text>
<polygon fill="rgb(255,255,255)" stroke="none" points="497,-491.5 497,-509.5 508,-509.5 508,-491.5 497,-491.5" style=""/>
<polygon fill="none" stroke="rgb(232,246,252)" points="497,-491.5 497,-509.5 508,-509.5 508,-491.5 497,-491.5" style=""/>
<text text-anchor="start" x="500" y="-497.5" font-family="monospace" font-size="10.00" style="">0</text>
<polygon fill="rgb(255,255,255)" stroke="none" points="511,-491.5 511,-509.5 522,-509.5 522,-491.5 511,-491.5" style=""/>
<polygon fill="none" stroke="rgb(232,246,252)" points="511,-491.5 511,-509.5 522,-509.5 522,-491.5 511,-491.5" style=""/>
<text text-anchor="start" x="514" y="-497.5" font-family="monospace" font-size="10.00" style="">1</text>
<polygon fill="none" stroke="rgb(255,255,255)" points="490.5,-486 490.5,-567 527.5,-567 527.5,-486 490.5,-486" style=""/>
</g>
<!-- 7&#45;&gt;10 -->
<g id="edge2" class="edge" data-name="7:out.0-&gt;10:in.0" data-comment="7-&gt;10">

<path fill="none" stroke="rgb(232,246,252)" stroke-width="1.5" d="M472,-593.5C472,-574.01 502,-580.99 502,-561.5" style=""/>
<text text-anchor="middle" x="476.75" y="-580.2" font-family="monospace" font-size="9.00" style="">Qubit</text>
</g>
<!-- 8 -->
<g id="node6" class="node" pointer-events="visible" data-name="8">

<polygon fill="rgb(246,249,254)" stroke="none" points="496,-665 496,-719 542,-719 542,-665 496,-665" style=""/>
<text text-anchor="start" x="502.5" y="-703.1" font-family="monospace" font-weight="bold" font-size="11.00" style="">QAlloc</text>
<polygon fill="rgb(255,255,255)" stroke="none" points="502,-671 502,-689 536,-689 536,-671 502,-671" style=""/>
<polygon fill="none" stroke="rgb(232,246,252)" points="502,-671 502,-689 536,-689 536,-671 502,-671" style=""/>
<text text-anchor="start" x="516.5" y="-677" font-family="monospace" font-size="10.00" style="">0</text>
<polygon fill="none" stroke="rgb(255,255,255)" points="496,-665 496,-719 542,-719 542,-665 496,-665" style=""/>
</g>
<!-- 9 -->
<g id="node7" class="node" pointer-events="visible" data-name="9">

<polygon fill="rgb(246,249,254)" stroke="none" points="506.5,-575 506.5,-656 529.5,-656 529.5,-575 506.5,-575" style=""/>
<polygon fill="rgb(255,255,255)" stroke="none" points="513,-631.5 513,-649.5 524,-649.5 524,-631.5 513,-631.5" style=""/>
<polygon fill="none" stroke="rgb(232,246,252)" points="513,-631.5 513,-649.5 524,-649.5 524,-631.5 513,-631.5" style=""/>
<text text-anchor="start" x="516" y="-637.5" font-family="monospace" font-size="10.00" style="">0</text>
<text text-anchor="start" x="514.22" y="-612.6" font-family="monospace" font-weight="bold" font-size="11.00" style="">H</text>
<polygon fill="rgb(255,255,255)" stroke="none" points="513,-580.5 513,-598.5 524,-598.5 524,-580.5 513,-580.5" style=""/>
<polygon fill="none" stroke="rgb(232,246,252)" points="513,-580.5 513,-598.5 524,-598.5 524,-580.5 513,-580.5" style=""/>
<text text-anchor="start" x="516" y="-586.5" font-family="monospace" font-size="10.00" style="">0</text>
<polygon fill="none" stroke="rgb(255,255,255)" points="506.5,-575 506.5,-656 529.5,-656 529.5,-575 506.5,-575" style=""/>
</g>
<!-- 8&#45;&gt;9 -->
<g id="edge1" class="edge" data-name="8:out.0-&gt;9:in.0" data-comment="8-&gt;9">

<path fill="none" stroke="rgb(232,246,252)" stroke-width="1.5" d="M519,-670C519,-661.33 519,-659.17 519,-650.5" style=""/>
<text text-anchor="middle" x="529.25" y="-652.15" font-family="monospace" font-size="9.00" style="">Qubit</text>
</g>
<!-- 9&#45;&gt;10 -->
<g id="edge3" class="edge" data-name="9:out.0-&gt;10:in.1" data-comment="9-&gt;10">

<path fill="none" stroke="rgb(232,246,252)" stroke-width="1.5" d="M519,-579.5C519,-571.45 517,-569.55 517,-561.5" style=""/>
<text text-anchor="middle" x="528.25" y="-573.2" font-family="monospace" font-size="9.00" style="">Qubit</text>
</g>
<!-- 11 -->
<g id="node9" class="node" pointer-events="visible" data-name="11">

<polygon fill="rgb(246,249,254)" stroke="none" points="509,-397 509,-478 585,-478 585,-397 509,-397" style=""/>
<polygon fill="rgb(255,255,255)" stroke="none" points="515,-453.5 515,-471.5 579,-471.5 579,-453.5 515,-453.5" style=""/>
<polygon fill="none" stroke="rgb(232,246,252)" points="515,-453.5 515,-471.5 579,-471.5 579,-453.5 515,-453.5" style=""/>
<text text-anchor="start" x="544.5" y="-459.5" font-family="monospace" font-size="10.00" style="">0</text>
<text text-anchor="start" x="515.85" y="-434.6" font-family="monospace" font-weight="bold" font-size="11.00" style="">MeasureFree</text>
<polygon fill="rgb(255,255,255)" stroke="none" points="515,-402.5 515,-420.5 579,-420.5 579,-402.5 515,-402.5" style=""/>
<polygon fill="none" stroke="rgb(232,246,252)" points="515,-402.5 515,-420.5 579,-420.5 579,-402.5 515,-402.5" style=""/>
<text text-anchor="start" x="544.5" y="-408.5" font-family="monospace" font-size="10.00" style="">0</text>
<polygon fill="none" stroke="rgb(255,255,255)" points="509,-397 509,-478 585,-478 585,-397 509,-397" style=""/>
</g>
<!-- 10&#45;&gt;11 -->
<g id="edge4" class="edge" data-name="10:out.1-&gt;11:in.0" data-comment="10-&gt;11">

<path fill="none" stroke="rgb(232,246,252)" stroke-width="1.5" d="M517,-490.5C517,-477.98 501.48,-462.5 514,-462.5" style=""/>
<text text-anchor="middle" x="500.56" y="-474.51" font-family="monospace" font-size="9.00" style="">Qubit</text>
</g>
<!-- 13 -->
<g id="node18" class="node" pointer-events="visible" data-name="13">

<polygon fill="rgb(232,246,252)" stroke="none" points="523.5,-209 523.5,-290 592.5,-290 592.5,-209 523.5,-209" style=""/>
<polygon fill="rgb(255,255,255)" stroke="none" points="530,-265.5 530,-283.5 557,-283.5 557,-265.5 530,-265.5" style=""/>
<polygon fill="none" stroke="rgb(232,246,252)" points="530,-265.5 530,-283.5 557,-283.5 557,-265.5 530,-265.5" style=""/>
<text text-anchor="start" x="541" y="-271.5" font-family="monospace" font-size="10.00" style="">0</text>
<polygon fill="rgb(255,255,255)" stroke="none" points="560,-265.5 560,-283.5 587,-283.5 587,-265.5 560,-265.5" style=""/>
<polygon fill="none" stroke="rgb(232,246,252)" points="560,-265.5 560,-283.5 587,-283.5 587,-265.5 560,-265.5" style=""/>
<text text-anchor="start" x="571" y="-271.5" font-family="monospace" font-size="10.00" style="">1</text>
<text text-anchor="start" x="530.69" y="-246.6" font-family="monospace" font-weight="bold" font-size="11.00" style="">Conditional</text>
<polygon fill="rgb(255,255,255)" stroke="none" points="530,-214.5 530,-232.5 587,-232.5 587,-214.5 530,-214.5" style=""/>
<polygon fill="none" stroke="rgb(232,246,252)" points="530,-214.5 530,-232.5 587,-232.5 587,-214.5 530,-214.5" style=""/>
<text text-anchor="start" x="556" y="-220.5" font-family="monospace" font-size="10.00" style="">0</text>
<polygon fill="none" stroke="rgb(232,246,252)" points="523.5,-209 523.5,-290 592.5,-290 592.5,-209 523.5,-209" style=""/>
</g>
<!-- 10&#45;&gt;13 -->
<g id="edge7" class="edge" data-name="10:out.0-&gt;13:in.1" data-comment="10-&gt;13">

<path fill="none" stroke="rgb(232,246,252)" stroke-width="1.5" d="M502,-490.5C502,-409 469.44,-371.93 520,-308 536.24,-287.47 574,-310.67 574,-284.5" style=""/>
<text text-anchor="middle" x="481.61" y="-392.15" font-family="monospace" font-size="9.00" style="">Qubit</text>
</g>
<!-- 12 -->
<g id="node10" class="node" pointer-events="visible" data-name="12">

<polygon fill="rgb(246,249,254)" stroke="none" points="525,-308 525,-389 563,-389 563,-308 525,-308" style=""/>
<polygon fill="rgb(255,255,255)" stroke="none" points="531,-364.5 531,-382.5 557,-382.5 557,-364.5 531,-364.5" style=""/>
<polygon fill="none" stroke="rgb(232,246,252)" points="531,-364.5 531,-382.5 557,-382.5 557,-364.5 531,-364.5" style=""/>
<text text-anchor="start" x="541.5" y="-370.5" font-family="monospace" font-size="10.00" style="">0</text>
<text text-anchor="start" x="531.78" y="-345.6" font-family="monospace" font-weight="bold" font-size="11.00" style="">Read</text>
<polygon fill="rgb(255,255,255)" stroke="none" points="531,-313.5 531,-331.5 557,-331.5 557,-313.5 531,-313.5" style=""/>
<polygon fill="none" stroke="rgb(232,246,252)" points="531,-313.5 531,-331.5 557,-331.5 557,-313.5 531,-313.5" style=""/>
<text text-anchor="start" x="541.5" y="-319.5" font-family="monospace" font-size="10.00" style="">0</text>
<polygon fill="none" stroke="rgb(255,255,255)" points="525,-308 525,-389 563,-389 563,-308 525,-308" style=""/>
</g>
<!-- 11&#45;&gt;12 -->
<g id="edge5" class="edge" data-name="11:out.0-&gt;12:in.0" data-comment="11-&gt;12">

<path fill="none" stroke="rgb(232,246,252)" stroke-width="1.5" d="M547,-401.5C547,-393.39 544,-391.61 544,-383.5" style=""/>
<text text-anchor="middle" x="569.99" y="-384.4" font-family="monospace" font-size="9.00" style="">Measurement</text>
</g>
<!-- 12&#45;&gt;13 -->
<g id="edge6" class="edge" data-name="12:out.0-&gt;13:in.0" data-comment="12-&gt;13">

<path fill="none" stroke="rgb(232,246,252)" stroke-width="1.5" d="M544,-312.5C544,-300.05 543,-296.95 543,-284.5" style=""/>
<text text-anchor="middle" x="534.75" y="-301.2" font-family="monospace" font-size="9.00" style="">Bool</text>
</g>
<!-- 15 -->
<g id="node11" class="node" pointer-events="visible" data-name="15">

<polygon fill="#accbf9" stroke="none" points="463,-222.5 463,-276.5 503,-276.5 503,-222.5 463,-222.5" style=""/>
<text text-anchor="start" x="469.85" y="-260.6" font-family="monospace" font-weight="bold" font-size="11.00" style="">Input</text>
<polygon fill="white" stroke="none" points="469,-228.5 469,-246.5 497,-246.5 497,-228.5 469,-228.5" style=""/>
<polygon fill="none" stroke="#1cade4" points="469,-228.5 469,-246.5 497,-246.5 497,-228.5 469,-228.5" style=""/>
<text text-anchor="start" x="480.5" y="-234.5" font-family="monospace" font-size="10.00" style="">0</text>
<polygon fill="none" stroke="white" points="463,-222.5 463,-276.5 503,-276.5 503,-222.5 463,-222.5" style=""/>
</g>
<!-- 16 -->
<g id="node12" class="node" pointer-events="visible" data-name="16">

<polygon fill="#accbf9" stroke="none" points="455,-133.5 455,-187.5 503,-187.5 503,-133.5 455,-133.5" style=""/>
<polygon fill="white" stroke="none" points="461,-163.5 461,-181.5 497,-181.5 497,-163.5 461,-163.5" style=""/>
<polygon fill="none" stroke="#1cade4" points="461,-163.5 461,-181.5 497,-181.5 497,-163.5 461,-163.5" style=""/>
<text text-anchor="start" x="476.5" y="-169.5" font-family="monospace" font-size="10.00" style="">0</text>
<text text-anchor="start" x="461.88" y="-144.6" font-family="monospace" font-weight="bold" font-size="11.00" style="">Output</text>
<polygon fill="none" stroke="white" points="455,-133.5 455,-187.5 503,-187.5 503,-133.5 455,-133.5" style=""/>
</g>
<!-- 15&#45;&gt;16 -->
<g id="edge10" class="edge" data-name="15:out.0-&gt;16:in.0" data-comment="15-&gt;16">

<path fill="none" stroke="#1cade4" stroke-width="1.5" d="M483,-227.5C483,-207.42 479,-202.58 479,-182.5" style=""/>
<text text-anchor="middle" x="470.75" y="-207.7" font-family="monospace" font-size="9.00" style="">Qubit</text>
</g>
<!-- 14 -->
<g id="node13" class="node" pointer-events="visible" data-name="14">

<polygon fill="#1cade4" stroke="none" points="402.5,-236 402.5,-263 451.5,-263 451.5,-236 402.5,-236" style=""/>
<text text-anchor="start" x="409.78" y="-246.6" font-family="monospace" font-weight="bold" font-size="11.00" style="">Case[0]</text>
<polygon fill="none" stroke="#1cade4" points="402.5,-236 402.5,-263 451.5,-263 451.5,-236 402.5,-236" style=""/>
</g>
<!-- 18 -->
<g id="node14" class="node" pointer-events="visible" data-name="18">

<polygon fill="#accbf9" stroke="none" points="332,-222.5 332,-276.5 372,-276.5 372,-222.5 332,-222.5" style=""/>
<text text-anchor="start" x="338.85" y="-260.6" font-family="monospace" font-weight="bold" font-size="11.00" style="">Input</text>
<polygon fill="white" stroke="none" points="338,-228.5 338,-246.5 366,-246.5 366,-228.5 338,-228.5" style=""/>
<polygon fill="none" stroke="#1cade4" points="338,-228.5 338,-246.5 366,-246.5 366,-228.5 338,-228.5" style=""/>
<text text-anchor="start" x="349.5" y="-234.5" font-family="monospace" font-size="10.00" style="">0</text>
<polygon fill="none" stroke="white" points="332,-222.5 332,-276.5 372,-276.5 372,-222.5 332,-222.5" style=""/>
</g>
<!-- 20 -->
<g id="node16" class="node" pointer-events="visible" data-name="20">

<polygon fill="#accbf9" stroke="none" points="337.5,-120 337.5,-201 360.5,-201 360.5,-120 337.5,-120" style=""/>
<polygon fill="white" stroke="none" points="344,-176.5 344,-194.5 355,-194.5 355,-176.5 344,-176.5" style=""/>
<polygon fill="none" stroke="#1cade4" points="344,-176.5 344,-194.5 355,-194.5 355,-176.5 344,-176.5" style=""/>
<text text-anchor="start" x="347" y="-182.5" font-family="monospace" font-size="10.00" style="">0</text>
<text text-anchor="start" x="345.53" y="-157.6" font-family="monospace" font-weight="bold" font-size="11.00" style="">X</text>
<polygon fill="white" stroke="none" points="344,-125.5 344,-143.5 355,-143.5 355,-125.5 344,-125.5" style=""/>
<polygon fill="none" stroke="#1cade4" points="344,-125.5 344,-143.5 355,-143.5 355,-125.5 344,-125.5" style=""/>
<text text-anchor="start" x="347" y="-131.5" font-family="monospace" font-size="10.00" style="">0</text>
<polygon fill="none" stroke="white" points="337.5,-120 337.5,-201 360.5,-201 360.5,-120 337.5,-120" style=""/>
</g>
<!-- 18&#45;&gt;20 -->
<g id="edge8" class="edge" data-name="18:out.0-&gt;20:in.0" data-comment="18-&gt;20">

<path fill="none" stroke="#1cade4" stroke-width="1.5" d="M352,-227.5C352,-213.25 350,-209.75 350,-195.5" style=""/>
<text text-anchor="middle" x="340.75" y="-214.2" font-family="monospace" font-size="9.00" style="">Qubit</text>
</g>
<!-- 19 -->
<g id="node15" class="node" pointer-events="visible" data-name="19">

<polygon fill="#accbf9" stroke="none" points="324,-58 324,-112 372,-112 372,-58 324,-58" style=""/>
<polygon fill="white" stroke="none" points="330,-88 330,-106 366,-106 366,-88 330,-88" style=""/>
<polygon fill="none" stroke="#1cade4" points="330,-88 330,-106 366,-106 366,-88 330,-88" style=""/>
<text text-anchor="start" x="345.5" y="-94" font-family="monospace" font-size="10.00" style="">0</text>
<text text-anchor="start" x="330.88" y="-69.1" font-family="monospace" font-weight="bold" font-size="11.00" style="">Output</text>
<polygon fill="none" stroke="white" points="324,-58 324,-112 372,-112 372,-58 324,-58" style=""/>
</g>
<!-- 20&#45;&gt;19 -->
<g id="edge9" class="edge" data-name="20:out.0-&gt;19:in.0" data-comment="20-&gt;19">

<path fill="none" stroke="#1cade4" stroke-width="1.5" d="M350,-124.5C350,-116.67 348,-114.83 348,-107" style=""/>
<text text-anchor="middle" x="359.25" y="-118.45" font-family="monospace" font-size="9.00" style="">Qubit</text>
</g>
<!-- 17 -->
<g id="node17" class="node" pointer-events="visible" data-name="17">

<polygon fill="#1cade4" stroke="none" points="271.5,-236 271.5,-263 320.5,-263 320.5,-236 271.5,-236" style=""/>
<text text-anchor="start" x="278.78" y="-246.6" font-family="monospace" font-weight="bold" font-size="11.00" style="">Case[1]</text>
<polygon fill="none" stroke="#1cade4" points="271.5,-236 271.5,-263 320.5,-263 320.5,-236 271.5,-236" style=""/>
</g>
<!-- 13&#45;&gt;6 -->
<g id="edge11" class="edge" data-name="13:out.0-&gt;6:in.0" data-comment="13-&gt;6">

<path fill="none" stroke="rgb(232,246,252)" stroke-width="1.5" d="M588,-223.5C614.3,-223.5 591.7,-172.5 618,-172.5" style=""/>
<text text-anchor="middle" x="592.75" y="-200.7" font-family="monospace" font-size="9.00" style="">Qubit</text>
</g>
<!-- 4 -->
<g id="node19" class="node" pointer-events="visible" data-name="4">

<polygon fill="rgb(232,246,252)" stroke="none" points="564,-664 564,-720 610,-720 610,-664 564,-664" style=""/>
<text text-anchor="start" x="571.73" y="-703.1" font-family="monospace" font-weight="bold" font-size="11.00" style="">[DFG]</text>
<polygon fill="rgb(255,255,255)" stroke="none" points="571,-671 571,-689 603,-689 603,-671 571,-671" style=""/>
<polygon fill="none" stroke="rgb(232,246,252)" points="571,-671 571,-689 603,-689 603,-671 571,-671" style=""/>
<text text-anchor="start" x="584.5" y="-677" font-family="monospace" font-size="10.00" style="">0</text>
<polygon fill="none" stroke="rgb(253,245,239)" stroke-width="2" points="565,-665 565,-719 609,-719 609,-665 565,-665" style=""/>
</g>
<!-- 4&#45;&gt;3 -->
<g id="edge12" class="edge" data-name="4:out.0-&gt;3:in.0" data-comment="4-&gt;3">

<path fill="none" stroke="rgb(232,246,252)" stroke-width="1.5" d="M604,-680C612.89,-680 608.35,-668.52 616,-664 638.03,-650.99 652.5,-671.3 673,-656 684.16,-647.67 672.08,-627.5 686,-627.5" style=""/>
<text text-anchor="middle" x="634.93" y="-663.58" font-family="monospace" font-size="9.00" style="">Qubit</text>
</g>
<!-- 1 -->
<g id="node20" class="node" pointer-events="visible" data-name="1">

<polygon fill="rgb(232,246,252)" stroke="none" points="88.5,-665 88.5,-719 179.5,-719 179.5,-665 88.5,-665" style=""/>
<text text-anchor="start" x="95.7" y="-703.1" font-family="monospace" font-weight="bold" font-size="11.00" style="">FuncDefn(main)</text>
<polygon fill="rgb(255,255,255)" stroke="none" points="95,-671 95,-689 174,-689 174,-671 95,-671" style=""/>
<polygon fill="none" stroke="rgb(232,246,252)" points="95,-671 95,-689 174,-689 174,-671 95,-671" style=""/>
<text text-anchor="start" x="132" y="-677" font-family="monospace" font-size="10.00" style="">0</text>
<polygon fill="none" stroke="rgb(232,246,252)" points="88.5,-665 88.5,-719 179.5,-719 179.5,-665 88.5,-665" style=""/>
</g>
<!-- 0 -->
<g id="node21" class="node" pointer-events="visible" data-name="0">

<polygon fill="rgb(232,246,252)" stroke="none" points="18,-678.5 18,-705.5 68,-705.5 68,-678.5 18,-678.5" style=""/>
<text text-anchor="start" x="24.97" y="-689.1" font-family="monospace" font-weight="bold" font-size="11.00" style="">Module</text>
<polygon fill="none" stroke="rgb(232,246,252)" points="18,-678.5 18,-705.5 68,-705.5 68,-678.5 18,-678.5" style=""/>
</g>
</g>
</svg>
