<?xml version="1.0" standalone="no"?>
<svg xmlns="http://www.w3.org/2000/svg" xmlns:xlink="http://www.w3.org/1999/xlink" width="1153pt" height="875pt" viewBox="0.00 0.00 1153.00 875.00">
<g id="graph0" class="graph" transform="translate(4,869.6371154785156) scale(1)" data-name="">
<polygon fill="white" stroke="none" points="-4,4 -4,-871 1149,-871 1149,4 -4,4" style=""/>
<g id="clust1" class="cluster" data-name="cluster0">

<polygon fill="white" stroke="#1cade4" points="8,-8 8,-859 1137,-859 1137,-8 8,-8" style=""/>
</g>
<g id="clust2" class="cluster" data-name="cluster1">

<polygon fill="rgb(255,255,255)" stroke="rgb(232,246,252)" points="201,-18 201,-849 940,-849 940,-18 201,-18" style=""/>
</g>
<g id="clust3" class="cluster" data-name="cluster4">

<polygon fill="rgb(255,255,255)" stroke="rgb(253,245,239)" stroke-width="2" points="364,-28 364,-839 872,-839 872,-28 364,-28" style=""/>
</g>
<g id="clust4" class="cluster" data-name="cluster17">

<polygon fill="rgb(255,255,255)" stroke="rgb(232,246,252)" points="432,-38 432,-765 862,-765 862,-38 432,-38" style=""/>
</g>
<g id="clust5" class="cluster" data-name="cluster24">

<polygon fill="rgb(255,255,255)" stroke="rgb(232,246,252)" points="442,-48 442,-399 794,-399 794,-48 442,-48" style=""/>
</g>
<g id="clust6" class="cluster" data-name="cluster25">

<polygon fill="rgb(255,255,255)" stroke="rgb(232,246,252)" points="583,-133.5 583,-385.5 704,-385.5 704,-133.5 583,-133.5" style=""/>
</g>
<g id="clust7" class="cluster" data-name="cluster28">

<polygon fill="rgb(255,255,255)" stroke="rgb(232,246,252)" points="452,-58 452,-385.5 573,-385.5 573,-58 452,-58" style=""/>
</g>
<g id="clust8" class="cluster" data-name="cluster7">

<polygon fill="white" stroke="#1cade4" points="950,-410.5 950,-751.5 1127,-751.5 1127,-410.5 950,-410.5" style=""/>
</g>
<g id="clust9" class="cluster" data-name="cluster12">

<polygon fill="white" stroke="#1cade4" points="18,-133.5 18,-385.5 191,-385.5 191,-133.5 18,-133.5" style=""/>
</g>
<!-- 2 -->
<g id="node1" class="node" pointer-events="visible" data-name="2">

<polygon fill="rgb(246,249,254)" stroke="none" points="314,-787.5 314,-814.5 354,-814.5 354,-787.5 314,-787.5" style=""/>
<text text-anchor="start" x="320.85" y="-798.1" font-family="monospace" font-weight="bold" font-size="11.00" style="">Input</text>
<polygon fill="none" stroke="rgb(255,255,255)" points="314,-787.5 314,-814.5 354,-814.5 354,-787.5 314,-787.5" style=""/>
</g>
<!-- 3 -->
<g id="node2" class="node" pointer-events="visible" data-name="3">

<polygon fill="rgb(246,249,254)" stroke="none" points="882,-687.5 882,-741.5 930,-741.5 930,-687.5 882,-687.5" style=""/>
<polygon fill="rgb(255,255,255)" stroke="none" points="888,-717.5 888,-735.5 924,-735.5 924,-717.5 888,-717.5" style=""/>
<polygon fill="none" stroke="rgb(232,246,252)" points="888,-717.5 888,-735.5 924,-735.5 924,-717.5 888,-717.5" style=""/>
<text text-anchor="start" x="903.5" y="-723.5" font-family="monospace" font-size="10.00" style="">0</text>
<text text-anchor="start" x="888.88" y="-698.6" font-family="monospace" font-weight="bold" font-size="11.00" style="">Output</text>
<polygon fill="none" stroke="rgb(255,255,255)" points="882,-687.5 882,-741.5 930,-741.5 930,-687.5 882,-687.5" style=""/>
</g>
<!-- 5 -->
<g id="node3" class="node" pointer-events="visible" data-name="5">

<polygon fill="rgb(246,249,254)" stroke="none" points="822,-787.5 822,-814.5 862,-814.5 862,-787.5 822,-787.5" style=""/>
<text text-anchor="start" x="828.85" y="-798.1" font-family="monospace" font-weight="bold" font-size="11.00" style="">Input</text>
<polygon fill="none" stroke="rgb(255,255,255)" points="822,-787.5 822,-814.5 862,-814.5 862,-787.5 822,-787.5" style=""/>
</g>
<!-- 6 -->
<g id="node4" class="node" pointer-events="visible" data-name="6">

<polygon fill="rgb(246,249,254)" stroke="none" points="374,-598.5 374,-652.5 422,-652.5 422,-598.5 374,-598.5" style=""/>
<polygon fill="rgb(255,255,255)" stroke="none" points="380,-628.5 380,-646.5 416,-646.5 416,-628.5 380,-628.5" style=""/>
<polygon fill="none" stroke="rgb(232,246,252)" points="380,-628.5 380,-646.5 416,-646.5 416,-628.5 380,-628.5" style=""/>
<text text-anchor="start" x="395.5" y="-634.5" font-family="monospace" font-size="10.00" style="">0</text>
<text text-anchor="start" x="380.88" y="-609.6" font-family="monospace" font-weight="bold" font-size="11.00" style="">Output</text>
<polygon fill="none" stroke="rgb(255,255,255)" points="374,-598.5 374,-652.5 422,-652.5 422,-598.5 374,-598.5" style=""/>
</g>
<!-- 16 -->
<g id="node5" class="node" pointer-events="visible" data-name="16">

<polygon fill="rgb(246,249,254)" stroke="none" points="449,-774 449,-828 495,-828 495,-774 449,-774" style=""/>
<text text-anchor="start" x="455.5" y="-812.1" font-family="monospace" font-weight="bold" font-size="11.00" style="">QAlloc</text>
<polygon fill="rgb(255,255,255)" stroke="none" points="455,-780 455,-798 489,-798 489,-780 455,-780" style=""/>
<polygon fill="none" stroke="rgb(232,246,252)" points="455,-780 455,-798 489,-798 489,-780 455,-780" style=""/>
<text text-anchor="start" x="469.5" y="-786" font-family="monospace" font-size="10.00" style="">0</text>
<polygon fill="none" stroke="rgb(255,255,255)" points="449,-774 449,-828 495,-828 495,-774 449,-774" style=""/>
</g>
<!-- 17 -->
<g id="node22" class="node" pointer-events="visible" data-name="17">

<polygon fill="rgb(232,246,252)" stroke="none" points="442.5,-674 442.5,-755 499.5,-755 499.5,-674 442.5,-674" style=""/>
<polygon fill="rgb(255,255,255)" stroke="none" points="449,-730.5 449,-748.5 494,-748.5 494,-730.5 449,-730.5" style=""/>
<polygon fill="none" stroke="rgb(232,246,252)" points="449,-730.5 449,-748.5 494,-748.5 494,-730.5 449,-730.5" style=""/>
<text text-anchor="start" x="469" y="-736.5" font-family="monospace" font-size="10.00" style="">0</text>
<text text-anchor="start" x="449.8" y="-711.6" font-family="monospace" font-weight="bold" font-size="11.00" style="">TailLoop</text>
<polygon fill="rgb(255,255,255)" stroke="none" points="449,-679.5 449,-697.5 494,-697.5 494,-679.5 449,-679.5" style=""/>
<polygon fill="none" stroke="rgb(232,246,252)" points="449,-679.5 449,-697.5 494,-697.5 494,-679.5 449,-679.5" style=""/>
<text text-anchor="start" x="469" y="-685.5" font-family="monospace" font-size="10.00" style="">0</text>
<polygon fill="none" stroke="rgb(232,246,252)" points="442.5,-674 442.5,-755 499.5,-755 499.5,-674 442.5,-674" style=""/>
</g>
<!-- 16&#45;&gt;17 -->
<g id="edge8" class="edge" data-name="16:out.0-&gt;17:in.0" data-comment="16-&gt;17">

<path fill="none" stroke="rgb(232,246,252)" stroke-width="1.5" d="M472,-779C472,-765.89 472,-762.61 472,-749.5" style=""/>
<text text-anchor="middle" x="461.75" y="-766.95" font-family="monospace" font-size="9.00" style="">Qubit</text>
</g>
<!-- 18 -->
<g id="node6" class="node" pointer-events="visible" data-name="18">

<polygon fill="#accbf9" stroke="none" points="743,-687.5 743,-741.5 783,-741.5 783,-687.5 743,-687.5" style=""/>
<text text-anchor="start" x="749.85" y="-725.6" font-family="monospace" font-weight="bold" font-size="11.00" style="">Input</text>
<polygon fill="white" stroke="none" points="749,-693.5 749,-711.5 777,-711.5 777,-693.5 749,-693.5" style=""/>
<polygon fill="none" stroke="#1cade4" points="749,-693.5 749,-711.5 777,-711.5 777,-693.5 749,-693.5" style=""/>
<text text-anchor="start" x="760.5" y="-699.5" font-family="monospace" font-size="10.00" style="">0</text>
<polygon fill="none" stroke="white" points="743,-687.5 743,-741.5 783,-741.5 783,-687.5 743,-687.5" style=""/>
</g>
<!-- 21 -->
<g id="node9" class="node" pointer-events="visible" data-name="21">

<polygon fill="#accbf9" stroke="none" points="777.5,-585 777.5,-666 828.5,-666 828.5,-585 777.5,-585" style=""/>
<polygon fill="white" stroke="none" points="784,-641.5 784,-659.5 795,-659.5 795,-641.5 784,-641.5" style=""/>
<polygon fill="none" stroke="#1cade4" points="784,-641.5 784,-659.5 795,-659.5 795,-641.5 784,-641.5" style=""/>
<text text-anchor="start" x="787" y="-647.5" font-family="monospace" font-size="10.00" style="">0</text>
<polygon fill="white" stroke="none" points="798,-641.5 798,-659.5 809,-659.5 809,-641.5 798,-641.5" style=""/>
<polygon fill="none" stroke="#1cade4" points="798,-641.5 798,-659.5 809,-659.5 809,-641.5 798,-641.5" style=""/>
<text text-anchor="start" x="801" y="-647.5" font-family="monospace" font-size="10.00" style="">1</text>
<polygon fill="white" stroke="none" points="812,-641.5 812,-659.5 823,-659.5 823,-641.5 812,-641.5" style=""/>
<polygon fill="none" stroke="#1cade4" points="812,-641.5 812,-659.5 823,-659.5 823,-641.5 812,-641.5" style=""/>
<text text-anchor="start" x="815" y="-647.5" font-family="monospace" font-size="10.00" style="">2</text>
<text text-anchor="start" x="793.72" y="-622.6" font-family="monospace" font-weight="bold" font-size="11.00" style="">Call</text>
<polygon fill="white" stroke="none" points="784,-590.5 784,-608.5 802,-608.5 802,-590.5 784,-590.5" style=""/>
<polygon fill="none" stroke="#1cade4" points="784,-590.5 784,-608.5 802,-608.5 802,-590.5 784,-590.5" style=""/>
<text text-anchor="start" x="790.5" y="-596.5" font-family="monospace" font-size="10.00" style="">0</text>
<polygon fill="white" stroke="none" points="805,-590.5 805,-608.5 823,-608.5 823,-590.5 805,-590.5" style=""/>
<polygon fill="none" stroke="#1cade4" points="805,-590.5 805,-608.5 823,-608.5 823,-590.5 805,-590.5" style=""/>
<text text-anchor="start" x="811.5" y="-596.5" font-family="monospace" font-size="10.00" style="">1</text>
<polygon fill="none" stroke="white" points="777.5,-585 777.5,-666 828.5,-666 828.5,-585 777.5,-585" style=""/>
</g>
<!-- 18&#45;&gt;21 -->
<g id="edge10" class="edge" data-name="18:out.0-&gt;21:in.0" data-comment="18-&gt;21">

<path fill="none" stroke="#1cade4" stroke-width="1.5" d="M763,-692.5C763,-674.18 789,-678.82 789,-660.5" style=""/>
<text text-anchor="middle" x="765.75" y="-679.2" font-family="monospace" font-size="9.00" style="">Qubit</text>
</g>
<!-- 19 -->
<g id="node7" class="node" pointer-events="visible" data-name="19">

<polygon fill="#accbf9" stroke="none" points="804,-232.5 804,-286.5 852,-286.5 852,-232.5 804,-232.5" style=""/>
<polygon fill="white" stroke="none" points="810,-262.5 810,-280.5 846,-280.5 846,-262.5 810,-262.5" style=""/>
<polygon fill="none" stroke="#1cade4" points="810,-262.5 810,-280.5 846,-280.5 846,-262.5 810,-262.5" style=""/>
<text text-anchor="start" x="825.5" y="-268.5" font-family="monospace" font-size="10.00" style="">0</text>
<text text-anchor="start" x="810.88" y="-243.6" font-family="monospace" font-weight="bold" font-size="11.00" style="">Output</text>
<polygon fill="none" stroke="white" points="804,-232.5 804,-286.5 852,-286.5 852,-232.5 804,-232.5" style=""/>
</g>
<!-- 20 -->
<g id="node8" class="node" pointer-events="visible" data-name="20">

<polygon fill="#accbf9" stroke="none" points="794,-687.5 794,-741.5 840,-741.5 840,-687.5 794,-687.5" style=""/>
<text text-anchor="start" x="800.5" y="-725.6" font-family="monospace" font-weight="bold" font-size="11.00" style="">QAlloc</text>
<polygon fill="white" stroke="none" points="800,-693.5 800,-711.5 834,-711.5 834,-693.5 800,-693.5" style=""/>
<polygon fill="none" stroke="#1cade4" points="800,-693.5 800,-711.5 834,-711.5 834,-693.5 800,-693.5" style=""/>
<text text-anchor="start" x="814.5" y="-699.5" font-family="monospace" font-size="10.00" style="">0</text>
<polygon fill="none" stroke="white" points="794,-687.5 794,-741.5 840,-741.5 840,-687.5 794,-687.5" style=""/>
</g>
<!-- 20&#45;&gt;21 -->
<g id="edge11" class="edge" data-name="20:out.0-&gt;21:in.1" data-comment="20-&gt;21">

<path fill="none" stroke="#1cade4" stroke-width="1.5" d="M817,-692.5C817,-677.15 804,-675.85 804,-660.5" style=""/>
<text text-anchor="middle" x="800.25" y="-679.2" font-family="monospace" font-size="9.00" style="">Qubit</text>
</g>
<!-- 22 -->
<g id="node10" class="node" pointer-events="visible" data-name="22">

<polygon fill="#accbf9" stroke="none" points="776,-496 776,-577 852,-577 852,-496 776,-496" style=""/>
<polygon fill="white" stroke="none" points="782,-552.5 782,-570.5 846,-570.5 846,-552.5 782,-552.5" style=""/>
<polygon fill="none" stroke="#1cade4" points="782,-552.5 782,-570.5 846,-570.5 846,-552.5 782,-552.5" style=""/>
<text text-anchor="start" x="811.5" y="-558.5" font-family="monospace" font-size="10.00" style="">0</text>
<text text-anchor="start" x="782.85" y="-533.6" font-family="monospace" font-weight="bold" font-size="11.00" style="">MeasureFree</text>
<polygon fill="white" stroke="none" points="782,-501.5 782,-519.5 846,-519.5 846,-501.5 782,-501.5" style=""/>
<polygon fill="none" stroke="#1cade4" points="782,-501.5 782,-519.5 846,-519.5 846,-501.5 782,-501.5" style=""/>
<text text-anchor="start" x="811.5" y="-507.5" font-family="monospace" font-size="10.00" style="">0</text>
<polygon fill="none" stroke="white" points="776,-496 776,-577 852,-577 852,-496 776,-496" style=""/>
</g>
<!-- 21&#45;&gt;22 -->
<g id="edge12" class="edge" data-name="21:out.1-&gt;22:in.0" data-comment="21-&gt;22">

<path fill="none" stroke="#1cade4" stroke-width="1.5" d="M814,-589.5C814,-581.5 814,-579.5 814,-571.5" style=""/>
<text text-anchor="middle" x="824.25" y="-583.2" font-family="monospace" font-size="9.00" style="">Qubit</text>
</g>
<!-- 24 -->
<g id="node21" class="node" pointer-events="visible" data-name="24">

<polygon fill="#1cade4" stroke="none" points="714.5,-308 714.5,-389 783.5,-389 783.5,-308 714.5,-308" style=""/>
<polygon fill="white" stroke="none" points="721,-364.5 721,-382.5 748,-382.5 748,-364.5 721,-364.5" style=""/>
<polygon fill="none" stroke="#1cade4" points="721,-364.5 721,-382.5 748,-382.5 748,-364.5 721,-364.5" style=""/>
<text text-anchor="start" x="732" y="-370.5" font-family="monospace" font-size="10.00" style="">0</text>
<polygon fill="white" stroke="none" points="751,-364.5 751,-382.5 778,-382.5 778,-364.5 751,-364.5" style=""/>
<polygon fill="none" stroke="#1cade4" points="751,-364.5 751,-382.5 778,-382.5 778,-364.5 751,-364.5" style=""/>
<text text-anchor="start" x="762" y="-370.5" font-family="monospace" font-size="10.00" style="">1</text>
<text text-anchor="start" x="721.69" y="-345.6" font-family="monospace" font-weight="bold" font-size="11.00" style="">Conditional</text>
<polygon fill="white" stroke="none" points="721,-313.5 721,-331.5 778,-331.5 778,-313.5 721,-313.5" style=""/>
<polygon fill="none" stroke="#1cade4" points="721,-313.5 721,-331.5 778,-331.5 778,-313.5 721,-313.5" style=""/>
<text text-anchor="start" x="747" y="-319.5" font-family="monospace" font-size="10.00" style="">0</text>
<polygon fill="none" stroke="#1cade4" points="714.5,-308 714.5,-389 783.5,-389 783.5,-308 714.5,-308" style=""/>
</g>
<!-- 21&#45;&gt;24 -->
<g id="edge15" class="edge" data-name="21:out.0-&gt;24:in.1" data-comment="21-&gt;24">

<path fill="none" stroke="#1cade4" stroke-width="1.5" d="M793,-589.5C793,-578.25 776.81,-586.63 771,-577 726.58,-503.31 765,-469.54 765,-383.5" style=""/>
<text text-anchor="middle" x="741.08" y="-487.67" font-family="monospace" font-size="9.00" style="">Qubit</text>
</g>
<!-- 23 -->
<g id="node11" class="node" pointer-events="visible" data-name="23">

<polygon fill="#accbf9" stroke="none" points="785,-407 785,-488 823,-488 823,-407 785,-407" style=""/>
<polygon fill="white" stroke="none" points="791,-463.5 791,-481.5 817,-481.5 817,-463.5 791,-463.5" style=""/>
<polygon fill="none" stroke="#1cade4" points="791,-463.5 791,-481.5 817,-481.5 817,-463.5 791,-463.5" style=""/>
<text text-anchor="start" x="801.5" y="-469.5" font-family="monospace" font-size="10.00" style="">0</text>
<text text-anchor="start" x="791.78" y="-444.6" font-family="monospace" font-weight="bold" font-size="11.00" style="">Read</text>
<polygon fill="white" stroke="none" points="791,-412.5 791,-430.5 817,-430.5 817,-412.5 791,-412.5" style=""/>
<polygon fill="none" stroke="#1cade4" points="791,-412.5 791,-430.5 817,-430.5 817,-412.5 791,-412.5" style=""/>
<text text-anchor="start" x="801.5" y="-418.5" font-family="monospace" font-size="10.00" style="">0</text>
<polygon fill="none" stroke="white" points="785,-407 785,-488 823,-488 823,-407 785,-407" style=""/>
</g>
<!-- 22&#45;&gt;23 -->
<g id="edge13" class="edge" data-name="22:out.0-&gt;23:in.0" data-comment="22-&gt;23">

<path fill="none" stroke="#1cade4" stroke-width="1.5" d="M814,-500.5C814,-491.35 804,-491.65 804,-482.5" style=""/>
<text text-anchor="middle" x="833.49" y="-483.4" font-family="monospace" font-size="9.00" style="">Measurement</text>
</g>
<!-- 23&#45;&gt;24 -->
<g id="edge14" class="edge" data-name="23:out.0-&gt;24:in.0" data-comment="23-&gt;24">

<path fill="none" stroke="#1cade4" stroke-width="1.5" d="M790,-421.5C789.06,-421.5 734,-384.44 734,-383.5" style=""/>
<text text-anchor="middle" x="752.9" y="-405.55" font-family="monospace" font-size="9.00" style="">Bool</text>
</g>
<!-- 26 -->
<g id="node12" class="node" pointer-events="visible" data-name="26">

<polygon fill="rgb(246,249,254)" stroke="none" points="654,-321.5 654,-375.5 694,-375.5 694,-321.5 654,-321.5" style=""/>
<text text-anchor="start" x="660.85" y="-359.6" font-family="monospace" font-weight="bold" font-size="11.00" style="">Input</text>
<polygon fill="rgb(255,255,255)" stroke="none" points="660,-327.5 660,-345.5 688,-345.5 688,-327.5 660,-327.5" style=""/>
<polygon fill="none" stroke="rgb(232,246,252)" points="660,-327.5 660,-345.5 688,-345.5 688,-327.5 660,-327.5" style=""/>
<text text-anchor="start" x="671.5" y="-333.5" font-family="monospace" font-size="10.00" style="">0</text>
<polygon fill="none" stroke="rgb(255,255,255)" points="654,-321.5 654,-375.5 694,-375.5 694,-321.5 654,-321.5" style=""/>
</g>
<!-- 33 -->
<g id="node14" class="node" pointer-events="visible" data-name="33">

<polygon fill="rgb(246,249,254)" stroke="none" points="654.5,-219 654.5,-300 687.5,-300 687.5,-219 654.5,-219" style=""/>
<polygon fill="rgb(255,255,255)" stroke="none" points="661,-275.5 661,-293.5 682,-293.5 682,-275.5 661,-275.5" style=""/>
<polygon fill="none" stroke="rgb(232,246,252)" points="661,-275.5 661,-293.5 682,-293.5 682,-275.5 661,-275.5" style=""/>
<text text-anchor="start" x="669" y="-281.5" font-family="monospace" font-size="10.00" style="">0</text>
<text text-anchor="start" x="661.73" y="-256.6" font-family="monospace" font-weight="bold" font-size="11.00" style="">Left</text>
<polygon fill="rgb(255,255,255)" stroke="none" points="661,-224.5 661,-242.5 682,-242.5 682,-224.5 661,-224.5" style=""/>
<polygon fill="none" stroke="rgb(232,246,252)" points="661,-224.5 661,-242.5 682,-242.5 682,-224.5 661,-224.5" style=""/>
<text text-anchor="start" x="669" y="-230.5" font-family="monospace" font-size="10.00" style="">0</text>
<polygon fill="none" stroke="rgb(255,255,255)" points="654.5,-219 654.5,-300 687.5,-300 687.5,-219 654.5,-219" style=""/>
</g>
<!-- 26&#45;&gt;33 -->
<g id="edge20" class="edge" data-name="26:out.0-&gt;33:in.0" data-comment="26-&gt;33">

<path fill="none" stroke="rgb(232,246,252)" stroke-width="1.5" d="M674,-326.5C674,-312.25 672,-308.75 672,-294.5" style=""/>
<text text-anchor="middle" x="662.75" y="-313.2" font-family="monospace" font-size="9.00" style="">Qubit</text>
</g>
<!-- 27 -->
<g id="node13" class="node" pointer-events="visible" data-name="27">

<polygon fill="rgb(246,249,254)" stroke="none" points="646,-143.5 646,-197.5 694,-197.5 694,-143.5 646,-143.5" style=""/>
<polygon fill="rgb(255,255,255)" stroke="none" points="652,-173.5 652,-191.5 688,-191.5 688,-173.5 652,-173.5" style=""/>
<polygon fill="none" stroke="rgb(232,246,252)" points="652,-173.5 652,-191.5 688,-191.5 688,-173.5 652,-173.5" style=""/>
<text text-anchor="start" x="667.5" y="-179.5" font-family="monospace" font-size="10.00" style="">0</text>
<text text-anchor="start" x="652.88" y="-154.6" font-family="monospace" font-weight="bold" font-size="11.00" style="">Output</text>
<polygon fill="none" stroke="rgb(255,255,255)" points="646,-143.5 646,-197.5 694,-197.5 694,-143.5 646,-143.5" style=""/>
</g>
<!-- 33&#45;&gt;27 -->
<g id="edge21" class="edge" data-name="33:out.0-&gt;27:in.0" data-comment="33-&gt;27">

<path fill="none" stroke="rgb(232,246,252)" stroke-width="1.5" d="M672,-223.5C672,-209.69 670,-206.31 670,-192.5" style=""/>
<text text-anchor="middle" x="634.26" y="-210.7" font-family="monospace" font-size="9.00" style="">Either(Qubit, Qubit)</text>
</g>
<!-- 25 -->
<g id="node15" class="node" pointer-events="visible" data-name="25">

<polygon fill="rgb(232,246,252)" stroke="none" points="593.5,-335 593.5,-362 642.5,-362 642.5,-335 593.5,-335" style=""/>
<text text-anchor="start" x="600.78" y="-345.6" font-family="monospace" font-weight="bold" font-size="11.00" style="">Case[0]</text>
<polygon fill="none" stroke="rgb(232,246,252)" points="593.5,-335 593.5,-362 642.5,-362 642.5,-335 593.5,-335" style=""/>
</g>
<!-- 29 -->
<g id="node16" class="node" pointer-events="visible" data-name="29">

<polygon fill="#accbf9" stroke="none" points="523,-321.5 523,-375.5 563,-375.5 563,-321.5 523,-321.5" style=""/>
<text text-anchor="start" x="529.85" y="-359.6" font-family="monospace" font-weight="bold" font-size="11.00" style="">Input</text>
<polygon fill="white" stroke="none" points="529,-327.5 529,-345.5 557,-345.5 557,-327.5 529,-327.5" style=""/>
<polygon fill="none" stroke="#1cade4" points="529,-327.5 529,-345.5 557,-345.5 557,-327.5 529,-327.5" style=""/>
<text text-anchor="start" x="540.5" y="-333.5" font-family="monospace" font-size="10.00" style="">0</text>
<polygon fill="none" stroke="white" points="523,-321.5 523,-375.5 563,-375.5 563,-321.5 523,-321.5" style=""/>
</g>
<!-- 31 -->
<g id="node18" class="node" pointer-events="visible" data-name="31">

<polygon fill="#accbf9" stroke="none" points="492.5,-219 492.5,-300 529.5,-300 529.5,-219 492.5,-219" style=""/>
<polygon fill="white" stroke="none" points="499,-275.5 499,-293.5 510,-293.5 510,-275.5 499,-275.5" style=""/>
<polygon fill="none" stroke="#1cade4" points="499,-275.5 499,-293.5 510,-293.5 510,-275.5 499,-275.5" style=""/>
<text text-anchor="start" x="502" y="-281.5" font-family="monospace" font-size="10.00" style="">0</text>
<polygon fill="white" stroke="none" points="513,-275.5 513,-293.5 524,-293.5 524,-275.5 513,-275.5" style=""/>
<polygon fill="none" stroke="#1cade4" points="513,-275.5 513,-293.5 524,-293.5 524,-275.5 513,-275.5" style=""/>
<text text-anchor="start" x="516" y="-281.5" font-family="monospace" font-size="10.00" style="">1</text>
<text text-anchor="start" x="501.72" y="-256.6" font-family="monospace" font-weight="bold" font-size="11.00" style="">Call</text>
<polygon fill="white" stroke="none" points="499,-224.5 499,-242.5 524,-242.5 524,-224.5 499,-224.5" style=""/>
<polygon fill="none" stroke="#1cade4" points="499,-224.5 499,-242.5 524,-242.5 524,-224.5 499,-224.5" style=""/>
<text text-anchor="start" x="509" y="-230.5" font-family="monospace" font-size="10.00" style="">0</text>
<polygon fill="none" stroke="white" points="492.5,-219 492.5,-300 529.5,-300 529.5,-219 492.5,-219" style=""/>
</g>
<!-- 29&#45;&gt;31 -->
<g id="edge17" class="edge" data-name="29:out.0-&gt;31:in.0" data-comment="29-&gt;31">

<path fill="none" stroke="#1cade4" stroke-width="1.5" d="M543,-326.5C543,-315.29 504,-305.71 504,-294.5" style=""/>
<text text-anchor="middle" x="513.25" y="-313.2" font-family="monospace" font-size="9.00" style="">Qubit</text>
</g>
<!-- 30 -->
<g id="node17" class="node" pointer-events="visible" data-name="30">

<polygon fill="#accbf9" stroke="none" points="488,-68 488,-122 536,-122 536,-68 488,-68" style=""/>
<polygon fill="white" stroke="none" points="494,-98 494,-116 530,-116 530,-98 494,-98" style=""/>
<polygon fill="none" stroke="#1cade4" points="494,-98 494,-116 530,-116 530,-98 494,-98" style=""/>
<text text-anchor="start" x="509.5" y="-104" font-family="monospace" font-size="10.00" style="">0</text>
<text text-anchor="start" x="494.88" y="-79.1" font-family="monospace" font-weight="bold" font-size="11.00" style="">Output</text>
<polygon fill="none" stroke="white" points="488,-68 488,-122 536,-122 536,-68 488,-68" style=""/>
</g>
<!-- 32 -->
<g id="node19" class="node" pointer-events="visible" data-name="32">

<polygon fill="#accbf9" stroke="none" points="492,-130 492,-211 532,-211 532,-130 492,-130" style=""/>
<polygon fill="white" stroke="none" points="498,-186.5 498,-204.5 526,-204.5 526,-186.5 498,-186.5" style=""/>
<polygon fill="none" stroke="#1cade4" points="498,-186.5 498,-204.5 526,-204.5 526,-186.5 498,-186.5" style=""/>
<text text-anchor="start" x="509.5" y="-192.5" font-family="monospace" font-size="10.00" style="">0</text>
<text text-anchor="start" x="498.86" y="-167.6" font-family="monospace" font-weight="bold" font-size="11.00" style="">Right</text>
<polygon fill="white" stroke="none" points="498,-135.5 498,-153.5 526,-153.5 526,-135.5 498,-135.5" style=""/>
<polygon fill="none" stroke="#1cade4" points="498,-135.5 498,-153.5 526,-153.5 526,-135.5 498,-135.5" style=""/>
<text text-anchor="start" x="509.5" y="-141.5" font-family="monospace" font-size="10.00" style="">0</text>
<polygon fill="none" stroke="white" points="492,-130 492,-211 532,-211 532,-130 492,-130" style=""/>
</g>
<!-- 31&#45;&gt;32 -->
<g id="edge18" class="edge" data-name="31:out.0-&gt;32:in.0" data-comment="31-&gt;32">

<path fill="none" stroke="#1cade4" stroke-width="1.5" d="M512,-223.5C512,-215.5 512,-213.5 512,-205.5" style=""/>
<text text-anchor="middle" x="522.25" y="-217.2" font-family="monospace" font-size="9.00" style="">Qubit</text>
</g>
<!-- 32&#45;&gt;30 -->
<g id="edge19" class="edge" data-name="32:out.0-&gt;30:in.0" data-comment="32-&gt;30">

<path fill="none" stroke="#1cade4" stroke-width="1.5" d="M512,-134.5C512,-126.72 512,-124.78 512,-117" style=""/>
<text text-anchor="middle" x="475.26" y="-128.45" font-family="monospace" font-size="9.00" style="">Either(Qubit, Qubit)</text>
</g>
<!-- 28 -->
<g id="node20" class="node" pointer-events="visible" data-name="28">

<polygon fill="rgb(232,246,252)" stroke="none" points="462.5,-335 462.5,-362 511.5,-362 511.5,-335 462.5,-335" style=""/>
<text text-anchor="start" x="469.78" y="-345.6" font-family="monospace" font-weight="bold" font-size="11.00" style="">Case[1]</text>
<polygon fill="none" stroke="rgb(232,246,252)" points="462.5,-335 462.5,-362 511.5,-362 511.5,-335 462.5,-335" style=""/>
</g>
<!-- 24&#45;&gt;19 -->
<g id="edge22" class="edge" data-name="24:out.0-&gt;19:in.0" data-comment="24-&gt;19">

<path fill="none" stroke="#1cade4" stroke-width="1.5" d="M779,-322.5C805.3,-322.5 782.7,-271.5 809,-271.5" style=""/>
<text text-anchor="middle" x="757.26" y="-299.7" font-family="monospace" font-size="9.00" style="">Either(Qubit, Qubit)</text>
</g>
<!-- 17&#45;&gt;6 -->
<g id="edge23" class="edge" data-name="17:out.0-&gt;6:in.0" data-comment="17-&gt;6">

<path fill="none" stroke="rgb(232,246,252)" stroke-width="1.5" d="M448,-688.5C435.19,-688.5 436.71,-676.91 430,-666 422.71,-654.14 430.92,-637.5 417,-637.5" style=""/>
<text text-anchor="middle" x="418.82" y="-667" font-family="monospace" font-size="9.00" style="">Qubit</text>
</g>
<!-- 4 -->
<g id="node23" class="node" pointer-events="visible" data-name="4">

<polygon fill="rgb(232,246,252)" stroke="none" points="765,-773 765,-829 811,-829 811,-773 765,-773" style=""/>
<text text-anchor="start" x="772.73" y="-812.1" font-family="monospace" font-weight="bold" font-size="11.00" style="">[DFG]</text>
<polygon fill="rgb(255,255,255)" stroke="none" points="772,-780 772,-798 804,-798 804,-780 772,-780" style=""/>
<polygon fill="none" stroke="rgb(232,246,252)" points="772,-780 772,-798 804,-798 804,-780 772,-780" style=""/>
<text text-anchor="start" x="785.5" y="-786" font-family="monospace" font-size="10.00" style="">0</text>
<polygon fill="none" stroke="rgb(253,245,239)" stroke-width="2" points="766,-774 766,-828 810,-828 810,-774 766,-774" style=""/>
</g>
<!-- 4&#45;&gt;3 -->
<g id="edge24" class="edge" data-name="4:out.0-&gt;3:in.0" data-comment="4-&gt;3">

<path fill="none" stroke="rgb(232,246,252)" stroke-width="1.5" d="M805,-789C813.89,-789 809.41,-777.63 817,-773 835.09,-761.96 846.52,-776.97 864,-765 880.45,-753.74 867.07,-726.5 887,-726.5" style=""/>
<text text-anchor="middle" x="835.28" y="-772.54" font-family="monospace" font-size="9.00" style="">Qubit</text>
</g>
<!-- 1 -->
<g id="node24" class="node" pointer-events="visible" data-name="1">

<polygon fill="rgb(232,246,252)" stroke="none" points="211.5,-774 211.5,-828 302.5,-828 302.5,-774 211.5,-774" style=""/>
<text text-anchor="start" x="218.7" y="-812.1" font-family="monospace" font-weight="bold" font-size="11.00" style="">FuncDefn(main)</text>
<polygon fill="rgb(255,255,255)" stroke="none" points="218,-780 218,-798 297,-798 297,-780 218,-780" style=""/>
<polygon fill="none" stroke="rgb(232,246,252)" points="218,-780 218,-798 297,-798 297,-780 218,-780" style=""/>
<text text-anchor="start" x="255" y="-786" font-family="monospace" font-size="10.00" style="">0</text>
<polygon fill="none" stroke="rgb(232,246,252)" points="211.5,-774 211.5,-828 302.5,-828 302.5,-774 211.5,-774" style=""/>
</g>
<!-- 8 -->
<g id="node25" class="node" pointer-events="visible" data-name="8">

<polygon fill="#accbf9" stroke="none" points="1077,-687.5 1077,-741.5 1117,-741.5 1117,-687.5 1077,-687.5" style=""/>
<text text-anchor="start" x="1083.85" y="-725.6" font-family="monospace" font-weight="bold" font-size="11.00" style="">Input</text>
<polygon fill="white" stroke="none" points="1083,-693.5 1083,-711.5 1096,-711.5 1096,-693.5 1083,-693.5" style=""/>
<polygon fill="none" stroke="#1cade4" points="1083,-693.5 1083,-711.5 1096,-711.5 1096,-693.5 1083,-693.5" style=""/>
<text text-anchor="start" x="1087" y="-699.5" font-family="monospace" font-size="10.00" style="">0</text>
<polygon fill="white" stroke="none" points="1099,-693.5 1099,-711.5 1111,-711.5 1111,-693.5 1099,-693.5" style=""/>
<polygon fill="none" stroke="#1cade4" points="1099,-693.5 1099,-711.5 1111,-711.5 1111,-693.5 1099,-693.5" style=""/>
<text text-anchor="start" x="1102.5" y="-699.5" font-family="monospace" font-size="10.00" style="">1</text>
<polygon fill="none" stroke="white" points="1077,-687.5 1077,-741.5 1117,-741.5 1117,-687.5 1077,-687.5" style=""/>
</g>
<!-- 10 -->
<g id="node27" class="node" pointer-events="visible" data-name="10">

<polygon fill="#accbf9" stroke="none" points="1092.5,-585 1092.5,-666 1115.5,-666 1115.5,-585 1092.5,-585" style=""/>
<polygon fill="white" stroke="none" points="1099,-641.5 1099,-659.5 1110,-659.5 1110,-641.5 1099,-641.5" style=""/>
<polygon fill="none" stroke="#1cade4" points="1099,-641.5 1099,-659.5 1110,-659.5 1110,-641.5 1099,-641.5" style=""/>
<text text-anchor="start" x="1102" y="-647.5" font-family="monospace" font-size="10.00" style="">0</text>
<text text-anchor="start" x="1100.22" y="-622.6" font-family="monospace" font-weight="bold" font-size="11.00" style="">H</text>
<polygon fill="white" stroke="none" points="1099,-590.5 1099,-608.5 1110,-608.5 1110,-590.5 1099,-590.5" style=""/>
<polygon fill="none" stroke="#1cade4" points="1099,-590.5 1099,-608.5 1110,-608.5 1110,-590.5 1099,-590.5" style=""/>
<text text-anchor="start" x="1102" y="-596.5" font-family="monospace" font-size="10.00" style="">0</text>
<polygon fill="none" stroke="white" points="1092.5,-585 1092.5,-666 1115.5,-666 1115.5,-585 1092.5,-585" style=""/>
</g>
<!-- 8&#45;&gt;10 -->
<g id="edge1" class="edge" data-name="8:out.1-&gt;10:in.0" data-comment="8-&gt;10">

<path fill="none" stroke="#1cade4" stroke-width="1.5" d="M1105,-692.5C1105,-678.28 1105,-674.72 1105,-660.5" style=""/>
<text text-anchor="middle" x="1094.75" y="-679.2" font-family="monospace" font-size="9.00" style="">Qubit</text>
</g>
<!-- 11 -->
<g id="node28" class="node" pointer-events="visible" data-name="11">

<polygon fill="#accbf9" stroke="none" points="1070.5,-496 1070.5,-577 1107.5,-577 1107.5,-496 1070.5,-496" style=""/>
<polygon fill="white" stroke="none" points="1077,-552.5 1077,-570.5 1088,-570.5 1088,-552.5 1077,-552.5" style=""/>
<polygon fill="none" stroke="#1cade4" points="1077,-552.5 1077,-570.5 1088,-570.5 1088,-552.5 1077,-552.5" style=""/>
<text text-anchor="start" x="1080" y="-558.5" font-family="monospace" font-size="10.00" style="">0</text>
<polygon fill="white" stroke="none" points="1091,-552.5 1091,-570.5 1102,-570.5 1102,-552.5 1091,-552.5" style=""/>
<polygon fill="none" stroke="#1cade4" points="1091,-552.5 1091,-570.5 1102,-570.5 1102,-552.5 1091,-552.5" style=""/>
<text text-anchor="start" x="1094" y="-558.5" font-family="monospace" font-size="10.00" style="">1</text>
<text text-anchor="start" x="1081.56" y="-533.6" font-family="monospace" font-weight="bold" font-size="11.00" style="">CX</text>
<polygon fill="white" stroke="none" points="1077,-501.5 1077,-519.5 1088,-519.5 1088,-501.5 1077,-501.5" style=""/>
<polygon fill="none" stroke="#1cade4" points="1077,-501.5 1077,-519.5 1088,-519.5 1088,-501.5 1077,-501.5" style=""/>
<text text-anchor="start" x="1080" y="-507.5" font-family="monospace" font-size="10.00" style="">0</text>
<polygon fill="white" stroke="none" points="1091,-501.5 1091,-519.5 1102,-519.5 1102,-501.5 1091,-501.5" style=""/>
<polygon fill="none" stroke="#1cade4" points="1091,-501.5 1091,-519.5 1102,-519.5 1102,-501.5 1091,-501.5" style=""/>
<text text-anchor="start" x="1094" y="-507.5" font-family="monospace" font-size="10.00" style="">1</text>
<polygon fill="none" stroke="white" points="1070.5,-496 1070.5,-577 1107.5,-577 1107.5,-496 1070.5,-496" style=""/>
</g>
<!-- 8&#45;&gt;11 -->
<g id="edge2" class="edge" data-name="8:out.0-&gt;11:in.0" data-comment="8-&gt;11">

<path fill="none" stroke="rgb(232,246,252)" stroke-width="1.5" d="M1089,-692.5C1089,-680.69 1087.76,-677.79 1087,-666 1084.31,-624.03 1082,-613.56 1082,-571.5" style=""/>
<text text-anchor="middle" x="1074.24" y="-634.67" font-family="monospace" font-size="9.00" style="">Qubit</text>
</g>
<!-- 9 -->
<g id="node26" class="node" pointer-events="visible" data-name="9">

<polygon fill="#accbf9" stroke="none" points="1065,-420.5 1065,-474.5 1113,-474.5 1113,-420.5 1065,-420.5" style=""/>
<polygon fill="white" stroke="none" points="1071,-450.5 1071,-468.5 1088,-468.5 1088,-450.5 1071,-450.5" style=""/>
<polygon fill="none" stroke="#1cade4" points="1071,-450.5 1071,-468.5 1088,-468.5 1088,-450.5 1071,-450.5" style=""/>
<text text-anchor="start" x="1077" y="-456.5" font-family="monospace" font-size="10.00" style="">0</text>
<polygon fill="white" stroke="none" points="1091,-450.5 1091,-468.5 1107,-468.5 1107,-450.5 1091,-450.5" style=""/>
<polygon fill="none" stroke="#1cade4" points="1091,-450.5 1091,-468.5 1107,-468.5 1107,-450.5 1091,-450.5" style=""/>
<text text-anchor="start" x="1096.5" y="-456.5" font-family="monospace" font-size="10.00" style="">1</text>
<text text-anchor="start" x="1071.88" y="-431.6" font-family="monospace" font-weight="bold" font-size="11.00" style="">Output</text>
<polygon fill="none" stroke="white" points="1065,-420.5 1065,-474.5 1113,-474.5 1113,-420.5 1065,-420.5" style=""/>
</g>
<!-- 10&#45;&gt;11 -->
<g id="edge3" class="edge" data-name="10:out.0-&gt;11:in.1" data-comment="10-&gt;11">

<path fill="none" stroke="#1cade4" stroke-width="1.5" d="M1105,-589.5C1105,-580.75 1097,-580.25 1097,-571.5" style=""/>
<text text-anchor="middle" x="1111.25" y="-572.4" font-family="monospace" font-size="9.00" style="">Qubit</text>
</g>
<!-- 11&#45;&gt;9 -->
<g id="edge4" class="edge" data-name="11:out.0-&gt;9:in.0" data-comment="11-&gt;9">

<path fill="none" stroke="#1cade4" stroke-width="1.5" d="M1082,-500.5C1082,-486.66 1079,-483.34 1079,-469.5" style=""/>
<text text-anchor="middle" x="1070.25" y="-487.7" font-family="monospace" font-size="9.00" style="">Qubit</text>
</g>
<!-- 11&#45;&gt;9 -->
<g id="edge5" class="edge" data-name="11:out.1-&gt;9:in.1" data-comment="11-&gt;9">

<path fill="none" stroke="#1cade4" stroke-width="1.5" d="M1097,-500.5C1097,-486.69 1099,-483.31 1099,-469.5" style=""/>
<text text-anchor="middle" x="1087.75" y="-476.9" font-family="monospace" font-size="9.00" style="">Qubit</text>
</g>
<!-- 7 -->
<g id="node29" class="node" pointer-events="visible" data-name="7">

<polygon fill="#1cade4" stroke="none" points="960.5,-687.5 960.5,-741.5 1065.5,-741.5 1065.5,-687.5 960.5,-687.5" style=""/>
<text text-anchor="start" x="967.98" y="-725.6" font-family="monospace" font-weight="bold" font-size="11.00" style="">FuncDefn(prepare)</text>
<polygon fill="white" stroke="none" points="967,-693.5 967,-711.5 1060,-711.5 1060,-693.5 967,-693.5" style=""/>
<polygon fill="none" stroke="#1cade4" points="967,-693.5 967,-711.5 1060,-711.5 1060,-693.5 967,-693.5" style=""/>
<text text-anchor="start" x="1011" y="-699.5" font-family="monospace" font-size="10.00" style="">0</text>
<polygon fill="none" stroke="#1cade4" points="960.5,-687.5 960.5,-741.5 1065.5,-741.5 1065.5,-687.5 960.5,-687.5" style=""/>
</g>
<!-- 7&#45;&gt;21 -->
<g id="edge9" class="edge" data-name="7:out.0-&gt;21:in.2" data-comment="7-&gt;21">

<path fill="none" stroke="#77ceef" stroke-width="1.5" d="M966,-702.5C949.44,-702.5 956.26,-682.42 942,-674 918.98,-660.4 850.74,-650.5 824,-650.5" style=""/>
</g>
<!-- 13 -->
<g id="node30" class="node" pointer-events="visible" data-name="13">

<polygon fill="#accbf9" stroke="none" points="28,-321.5 28,-375.5 68,-375.5 68,-321.5 28,-321.5" style=""/>
<text text-anchor="start" x="34.85" y="-359.6" font-family="monospace" font-weight="bold" font-size="11.00" style="">Input</text>
<polygon fill="white" stroke="none" points="34,-327.5 34,-345.5 62,-345.5 62,-327.5 34,-327.5" style=""/>
<polygon fill="none" stroke="#1cade4" points="34,-327.5 34,-345.5 62,-345.5 62,-327.5 34,-327.5" style=""/>
<text text-anchor="start" x="45.5" y="-333.5" font-family="monospace" font-size="10.00" style="">0</text>
<polygon fill="none" stroke="white" points="28,-321.5 28,-375.5 68,-375.5 68,-321.5 28,-321.5" style=""/>
</g>
<!-- 15 -->
<g id="node32" class="node" pointer-events="visible" data-name="15">

<polygon fill="#accbf9" stroke="none" points="37.5,-219 37.5,-300 60.5,-300 60.5,-219 37.5,-219" style=""/>
<polygon fill="white" stroke="none" points="44,-275.5 44,-293.5 55,-293.5 55,-275.5 44,-275.5" style=""/>
<polygon fill="none" stroke="#1cade4" points="44,-275.5 44,-293.5 55,-293.5 55,-275.5 44,-275.5" style=""/>
<text text-anchor="start" x="47" y="-281.5" font-family="monospace" font-size="10.00" style="">0</text>
<text text-anchor="start" x="45.53" y="-256.6" font-family="monospace" font-weight="bold" font-size="11.00" style="">X</text>
<polygon fill="white" stroke="none" points="44,-224.5 44,-242.5 55,-242.5 55,-224.5 44,-224.5" style=""/>
<polygon fill="none" stroke="#1cade4" points="44,-224.5 44,-242.5 55,-242.5 55,-224.5 44,-224.5" style=""/>
<text text-anchor="start" x="47" y="-230.5" font-family="monospace" font-size="10.00" style="">0</text>
<polygon fill="none" stroke="white" points="37.5,-219 37.5,-300 60.5,-300 60.5,-219 37.5,-219" style=""/>
</g>
<!-- 13&#45;&gt;15 -->
<g id="edge6" class="edge" data-name="13:out.0-&gt;15:in.0" data-comment="13-&gt;15">

<path fill="none" stroke="#1cade4" stroke-width="1.5" d="M48,-326.5C48,-312.25 50,-308.75 50,-294.5" style=""/>
<text text-anchor="middle" x="38.75" y="-313.2" font-family="monospace" font-size="9.00" style="">Qubit</text>
</g>
<!-- 14 -->
<g id="node31" class="node" pointer-events="visible" data-name="14">

<polygon fill="#accbf9" stroke="none" points="28,-143.5 28,-197.5 76,-197.5 76,-143.5 28,-143.5" style=""/>
<polygon fill="white" stroke="none" points="34,-173.5 34,-191.5 70,-191.5 70,-173.5 34,-173.5" style=""/>
<polygon fill="none" stroke="#1cade4" points="34,-173.5 34,-191.5 70,-191.5 70,-173.5 34,-173.5" style=""/>
<text text-anchor="start" x="49.5" y="-179.5" font-family="monospace" font-size="10.00" style="">0</text>
<text text-anchor="start" x="34.88" y="-154.6" font-family="monospace" font-weight="bold" font-size="11.00" style="">Output</text>
<polygon fill="none" stroke="white" points="28,-143.5 28,-197.5 76,-197.5 76,-143.5 28,-143.5" style=""/>
</g>
<!-- 15&#45;&gt;14 -->
<g id="edge7" class="edge" data-name="15:out.0-&gt;14:in.0" data-comment="15-&gt;14">

<path fill="none" stroke="#1cade4" stroke-width="1.5" d="M50,-223.5C50,-209.69 52,-206.31 52,-192.5" style=""/>
<text text-anchor="middle" x="40.75" y="-210.7" font-family="monospace" font-size="9.00" style="">Qubit</text>
</g>
<!-- 12 -->
<g id="node33" class="node" pointer-events="visible" data-name="12">

<polygon fill="#1cade4" stroke="none" points="79.5,-321.5 79.5,-375.5 180.5,-375.5 180.5,-321.5 79.5,-321.5" style=""/>
<text text-anchor="start" x="86.83" y="-359.6" font-family="monospace" font-weight="bold" font-size="11.00" style="">FuncDefn(correct)</text>
<polygon fill="white" stroke="none" points="86,-327.5 86,-345.5 175,-345.5 175,-327.5 86,-327.5" style=""/>
<polygon fill="none" stroke="#1cade4" points="86,-327.5 86,-345.5 175,-345.5 175,-327.5 86,-327.5" style=""/>
<text text-anchor="start" x="128" y="-333.5" font-family="monospace" font-size="10.00" style="">0</text>
<polygon fill="none" stroke="#1cade4" points="79.5,-321.5 79.5,-375.5 180.5,-375.5 180.5,-321.5 79.5,-321.5" style=""/>
</g>
<!-- 12&#45;&gt;31 -->
<g id="edge16" class="edge" data-name="12:out.0-&gt;31:in.1" data-comment="12-&gt;31">

<path fill="none" stroke="#77ceef" stroke-width="1.5" d="M176,-336.5C185.6,-336.5 519,-304.1 519,-294.5" style=""/>
</g>
<!-- 0 -->
<g id="node34" class="node" pointer-events="visible" data-name="0">

<polygon fill="rgb(232,246,252)" stroke="none" points="79,-787.5 79,-814.5 129,-814.5 129,-787.5 79,-787.5" style=""/>
<text text-anchor="start" x="85.97" y="-798.1" font-family="monospace" font-weight="bold" font-size="11.00" style="">Module</text>
<polygon fill="none" stroke="rgb(232,246,252)" points="79,-787.5 79,-814.5 129,-814.5 129,-787.5 79,-787.5" style=""/>
</g>
</g>
</svg>
